<?xml version="1.0" standalone="no"?>
<!DOCTYPE svg PUBLIC "-//W3C//DTD SVG 20010904//EN"
 "http://www.w3.org/TR/2001/REC-SVG-20010904/DTD/svg10.dtd">
<svg version="1.0" xmlns="http://www.w3.org/2000/svg"
 width="863.000000pt" height="863.000000pt" viewBox="0 0 863.000000 863.000000"
 preserveAspectRatio="xMidYMid meet">
<metadata>
Created by potrace 1.14, written by Peter Selinger 2001-2017
</metadata>
<g transform="translate(0.000000,863.000000) scale(0.100000,-0.100000)"
fill="#000000" stroke="none">
<path d="M747 8622 c-16 -3 -17 -241 -15 -3725 l3 -3722 26 -70 c55 -148 113
-241 211 -337 113 -111 261 -189 423 -224 56 -12 644 -14 651 -3 5 9 8 205 5
314 -1 20 -7 20 -198 20 -223 -1 -301 9 -387 48 -118 54 -192 120 -259 230
-172 281 -60 653 238 797 44 21 103 42 130 46 28 5 53 9 58 10 4 1 1161 2
2572 3 l2565 1 0 3308 0 3307 -3003 0 c-1652 0 -3011 -1 -3020 -3z"/>
<path d="M7558 8622 c-13 -3 -15 -181 -15 -1612 l0 -1610 26 -1 c131 -3 303 0
308 5 3 3 7 728 7 1611 1 1522 0 1605 -16 1606 -64 2 -297 3 -310 1z"/>
<path d="M7545 4620 c-1 -3 -2 -842 -2 -1866 0 -1023 -2 -1865 -5 -1870 -4 -5
-728 -9 -1877 -9 l-1871 0 0 -171 0 -171 2045 0 c1892 -1 2045 0 2046 16 4 65
3 4071 -1 4072 -16 4 -332 3 -335 -1z"/>
<path d="M2409 1640 c-3 -130 0 -1493 4 -1496 3 -3 56 37 119 88 63 51 134
109 158 128 24 19 82 66 128 103 56 46 87 65 95 59 78 -61 502 -375 511 -378
8 -3 11 186 10 748 -1 414 -2 758 -3 763 -1 7 -178 10 -511 10 l-510 0 -1 -25z"/>
</g>
</svg>
